<?xml version="1.0" standalone="no"?>
<!DOCTYPE svg PUBLIC "-//W3C//DTD SVG 20010904//EN"
 "http://www.w3.org/TR/2001/REC-SVG-20010904/DTD/svg10.dtd">
<svg version="1.0" xmlns="http://www.w3.org/2000/svg"
 width="1162.000000pt" height="912.000000pt" viewBox="0 0 1162.000000 912.000000"
 preserveAspectRatio="xMidYMid meet">

<g transform="translate(0.000000,912.000000) scale(0.100000,-0.100000)"
fill="#000000" stroke="none">
<path d="M5118 8441 l-33 -29 -3 -854 c-1 -469 0 -868 3 -887 4 -18 17 -44 30
-57 l24 -24 731 0 731 0 23 23 c13 13 25 30 28 38 4 10 27 -7 79 -58 80 -78
117 -98 165 -89 65 13 111 100 85 164 -7 15 -84 97 -171 181 l-160 152 0 597
0 597 -139 138 -139 137 -611 0 -611 0 -32 -29z m1234 -93 l2 -113 3 103 c3
75 7 102 17 102 7 0 70 -58 139 -129 l127 -129 0 -581 c0 -320 -4 -581 -8
-581 -4 0 -26 18 -47 40 -26 26 -48 40 -65 40 -17 0 -39 14 -65 40 l-38 39 31
68 c42 93 52 136 52 223 -1 145 -47 260 -144 355 -195 191 -498 191 -691 0
-212 -209 -206 -524 14 -726 69 -64 171 -111 267 -123 100 -12 248 23 328 77
l28 20 39 -39 c26 -26 38 -48 39 -68 0 -23 25 -53 130 -156 72 -71 130 -134
130 -140 0 -6 -13 -25 -29 -41 l-29 -29 -712 0 -712 0 -29 29 -29 29 0 870 0
870 26 31 26 31 599 0 599 0 2 -112z m-209 -423 c171 -52 305 -208 325 -378
11 -90 -3 -200 -35 -267 -14 -30 -27 -50 -30 -43 -2 7 1 22 7 35 11 22 10 22
-4 4 -9 -11 -26 -21 -38 -22 -13 -2 -17 0 -10 2 6 3 10 10 7 15 -3 4 1 21 9
37 8 15 18 46 22 67 l8 40 8 -40 c5 -21 6 -45 4 -52 -3 -7 0 -13 6 -13 7 0 9
13 5 35 -4 24 -2 34 6 32 13 -2 22 101 12 141 -8 31 -16 22 -25 -25 -7 -36 -8
-36 -9 -7 -3 91 -60 212 -130 277 -226 211 -583 101 -666 -206 -7 -28 -14 -42
-14 -29 -1 13 -5 20 -11 17 -5 -3 -10 -1 -10 6 0 32 -20 -12 -29 -61 l-9 -55
-1 56 c-4 185 136 369 327 430 71 22 208 25 275 4z m4 -107 c31 -11 76 -41
108 -69 252 -231 93 -648 -247 -649 -336 -1 -499 401 -260 639 104 104 254
134 399 79z m-539 -429 c-3 -8 -7 -3 -11 10 -4 17 -3 21 5 13 5 -5 8 -16 6
-23z m27 -81 c3 -7 -1 -4 -9 6 -9 11 -16 29 -15 40 1 17 2 16 9 -6 4 -14 11
-32 15 -40z m798 -254 l-37 -31 -33 26 c-18 14 -33 30 -33 36 0 5 14 24 32 42
l32 33 38 -37 39 -38 -38 -31z m-169 24 c-3 -4 -9 -8 -15 -8 -5 0 -9 4 -9 8 0
5 7 9 15 9 8 0 12 -4 9 -9z m475 -206 c141 -137 212 -213 207 -221 -4 -7 -14
-11 -21 -9 -8 2 -94 80 -192 173 -98 94 -196 185 -218 204 -37 32 -38 34 -20
47 10 8 21 14 24 14 3 0 102 -94 220 -208z m-268 135 c-1 -12 -15 -9 -19 4 -3
6 1 10 8 8 6 -3 11 -8 11 -12z"/>
<path d="M6370 7280 c0 -5 5 -10 11 -10 5 0 7 5 4 10 -3 6 -8 10 -11 10 -2 0
-4 -4 -4 -10z"/>
<path d="M7476 8244 c-9 -8 -16 -31 -16 -50 l0 -34 -50 0 c-41 0 -56 -5 -82
-29 l-33 -29 -3 -463 c-3 -487 -1 -504 42 -534 35 -25 35 -16 0 19 l-34 34 0
366 0 366 620 0 620 0 0 -368 c0 -397 -1 -401 -54 -422 -17 -7 -18 -9 -3 -9
10 -1 29 10 42 24 25 24 25 26 25 217 0 106 3 311 6 454 7 284 3 318 -43 354
-18 14 -41 20 -74 20 -49 0 -49 0 -49 33 0 40 -25 67 -63 67 -30 0 -47 -24
-47 -69 l0 -31 -355 0 -355 0 0 34 c0 40 -22 66 -55 66 -13 0 -31 -7 -39 -16z
m72 -101 c3 -91 2 -93 -22 -99 -14 -3 -30 -3 -35 1 -12 7 -15 177 -4 189 4 4
19 6 33 4 25 -3 25 -5 28 -95z m816 81 c3 -9 6 -48 6 -89 0 -79 -13 -102 -50
-90 -18 6 -20 14 -20 94 0 48 3 91 7 94 12 13 51 7 57 -9z m-904 -125 c0 -54
15 -79 46 -79 49 0 64 16 64 70 l0 50 355 0 355 0 0 -44 c0 -49 19 -76 52 -76
37 0 58 29 58 77 l0 44 51 -3 c73 -4 88 -27 92 -135 l2 -83 -53 0 c-29 0 -51
4 -48 9 8 13 -55 23 -69 11 -7 -6 -26 -7 -43 -4 -16 3 -53 1 -80 -5 -79 -17
-882 -16 -894 1 -8 10 -11 10 -15 1 -13 -34 -23 -5 -23 68 0 76 2 82 29 110
24 24 38 29 75 29 l46 0 0 -41z"/>
<path d="M9605 7974 c-144 -101 -341 -181 -487 -200 -92 -12 -88 -2 -88 -192
0 -274 31 -443 114 -618 78 -163 170 -278 305 -380 93 -69 207 -134 238 -134
25 0 155 75 229 132 228 176 361 414 410 733 18 118 22 421 5 438 -6 6 -50 19
-98 28 -180 37 -326 98 -465 195 -43 30 -79 54 -80 54 -2 0 -39 -25 -83 -56z
m152 -21 c136 -93 361 -183 500 -199 l52 -7 7 -46 c12 -77 -3 -339 -26 -449
-62 -306 -208 -532 -448 -694 -40 -27 -92 -58 -115 -68 -37 -17 -44 -17 -76
-4 -72 30 -229 144 -298 217 -214 225 -303 483 -303 875 l0 161 38 6 c219 38
381 103 532 214 30 22 58 40 62 41 4 0 38 -21 75 -47z"/>
<path d="M9635 7854 c-109 -77 -325 -167 -457 -189 l-38 -6 0 -88 c0 -471 157
-783 487 -968 l57 -32 56 30 c319 171 501 527 488 958 l-3 104 -93 23 c-151
37 -277 91 -391 168 -29 20 -54 36 -55 36 0 0 -24 -16 -51 -36z m175 -86 c0
-5 5 -6 11 -3 11 8 7 -44 -6 -64 -3 -6 1 -18 9 -27 20 -19 21 -48 2 -41 -9 4
-12 0 -9 -11 2 -9 -3 -26 -11 -37 -15 -19 -15 -19 -22 13 -5 24 -11 31 -23 27
-9 -2 -22 -1 -30 4 -11 7 -9 10 7 15 11 4 23 14 26 23 5 12 3 13 -6 6 -7 -5
-21 -13 -32 -17 -15 -5 -17 -2 -12 18 4 17 1 26 -10 30 -13 5 -16 0 -12 -28 4
-33 2 -36 -39 -51 -53 -21 -73 -48 -73 -101 0 -53 28 -90 81 -105 21 -7 39
-16 39 -20 0 -8 -87 -29 -119 -29 -11 0 -29 -8 -41 -18 -32 -26 -21 -68 20
-77 25 -5 30 -12 30 -35 0 -24 -6 -30 -34 -40 -19 -6 -36 -16 -38 -21 -2 -6
-20 -11 -41 -12 -22 -1 -37 -7 -37 -14 0 -8 -15 -13 -39 -13 -22 0 -41 -4 -43
-9 -1 -5 -21 -11 -43 -12 -22 -2 -46 -9 -54 -17 -7 -7 -16 -10 -19 -7 -4 3 0
10 8 15 12 7 12 10 -3 16 -10 4 -16 13 -13 21 3 8 2 12 -3 9 -22 -14 -70 286
-71 445 l0 35 107 27 c113 29 272 99 362 160 l53 35 64 -40 c35 -22 64 -44 64
-50z m49 -47 c-15 -5 -22 6 -14 19 6 9 10 9 16 -1 5 -8 4 -15 -2 -18z m61 -2
c13 -9 13 -9 0 -7 -9 2 -16 -1 -17 -7 0 -5 3 -9 9 -7 5 1 7 -2 4 -7 -7 -10
-47 -11 -42 -1 2 3 6 13 9 23 7 19 16 21 37 6z m-66 -31 c-4 -34 -4 -34 -14
-18 -5 9 -5 19 2 27 14 17 15 17 12 -9z m94 8 c-7 -8 -15 -12 -17 -11 -5 6 10
25 20 25 5 0 4 -6 -3 -14z m-197 -112 c12 -11 19 -31 19 -56 0 -90 -115 -125
-155 -47 -22 42 -18 67 15 101 27 26 36 30 67 25 19 -4 44 -14 54 -23z m9
-399 l0 -196 30 -17 c21 -11 30 -24 28 -37 -3 -19 -11 -20 -133 -20 -123 0
-130 1 -133 20 -2 15 5 23 26 31 l29 11 7 131 c8 156 4 177 -35 191 -55 19
-35 37 64 59 50 11 98 21 105 21 9 1 12 -44 12 -194z"/>
<path d="M9560 7225 c-11 -13 -10 -14 4 -9 9 3 16 10 16 15 0 13 -6 11 -20 -6z"/>
<path d="M8146 7793 c-3 -3 -6 -26 -6 -50 l0 -43 51 0 50 0 -3 48 -3 47 -41 2
c-23 2 -44 0 -48 -4z"/>
<path d="M8343 7793 c-16 -3 -24 -14 -29 -38 -8 -47 0 -55 57 -55 l49 0 0 45
c0 32 -4 45 -14 45 -8 0 -20 2 -28 4 -7 2 -23 1 -35 -1z"/>
<path d="M2839 7746 c-99 -26 -190 -103 -233 -195 -17 -37 -21 -65 -21 -141 0
-82 4 -103 26 -150 33 -70 96 -132 168 -168 49 -24 67 -27 151 -27 107 0 175
23 225 75 l28 29 -63 58 c-82 76 -84 77 -122 57 -46 -24 -110 -21 -149 7 -41
29 -72 98 -64 143 9 46 58 102 101 116 l37 12 -7 61 c-3 33 -6 77 -6 98 0 43
-2 44 -71 25z m60 -91 c2 -71 1 -76 -22 -84 -30 -12 -84 -58 -99 -84 -15 -28
-27 -138 -14 -130 5 4 7 0 4 -8 -3 -8 7 -27 23 -43 16 -16 26 -32 23 -35 -4
-3 -9 -1 -11 5 -2 7 -13 9 -25 6 -15 -3 -19 -1 -14 7 4 6 13 8 19 5 9 -5 9 -3
0 6 -10 11 -15 11 -30 0 -15 -12 -16 -12 -5 0 18 21 14 32 -10 25 -15 -6 -20
-4 -16 6 4 9 -2 15 -16 16 -11 1 -34 5 -50 9 -21 5 -27 4 -22 -5 4 -6 1 -11
-7 -11 -35 0 -24 148 18 230 42 83 148 156 231 159 19 1 21 -5 23 -74z"/>
<path d="M2720 7370 c0 -5 5 -10 11 -10 5 0 7 5 4 10 -3 6 -8 10 -11 10 -2 0
-4 -4 -4 -10z"/>
<path d="M4175 7698 c-3 -7 -4 -153 -3 -323 l3 -310 70 0 70 0 0 320 0 320
-68 3 c-48 2 -69 -1 -72 -10z m124 -205 c0 -109 -3 -192 -6 -185 -2 6 -11 12
-19 12 -8 0 -14 6 -14 13 -1 6 -10 1 -20 -12 -17 -20 -20 -20 -20 -5 0 25 -11
10 -20 -28 -5 -19 -8 56 -9 185 l-1 217 55 0 55 0 -1 -197z"/>
<path d="M8140 7591 l0 -51 51 0 50 0 -3 48 -3 47 -47 3 -48 3 0 -50z m90 7
c0 -17 -3 -28 -7 -24 -5 4 -8 13 -8 19 0 7 -14 12 -31 12 -45 0 -38 22 8 23
36 2 38 0 38 -30z m-56 -13 c-4 -8 -11 -12 -16 -9 -6 4 -5 10 3 15 19 12 19
11 13 -6z"/>
<path d="M8315 7601 c-4 -22 -4 -45 0 -51 3 -5 29 -10 56 -10 l50 0 -3 48 -3
47 -47 3 -46 3 -7 -40z"/>
<path d="M3710 7573 c0 -4 29 -6 65 -5 l65 4 -2 -247 -3 -247 -55 -1 -55 -1
-5 99 c-5 90 -6 95 -13 55 -5 -25 -7 -72 -5 -105 l3 -60 70 0 70 0 0 255 0
255 -67 3 c-38 2 -68 -1 -68 -5z"/>
<path d="M3945 7500 c-3 -6 1 -7 9 -4 18 7 21 14 7 14 -6 0 -13 -4 -16 -10z"/>
<path d="M8142 7433 l3 -48 45 0 45 0 3 48 3 47 -51 0 -51 0 3 -47z"/>
<path d="M8317 7473 c-13 -12 -7 -70 7 -82 8 -7 32 -11 53 -9 38 3 38 3 41 51
l3 47 -49 0 c-27 0 -52 -3 -55 -7z"/>
<path d="M3474 7365 c-3 -8 -4 -20 -1 -27 3 -7 6 -3 6 10 1 23 4 24 70 20 38
-2 67 0 64 5 -2 4 -33 7 -69 7 -48 0 -66 -4 -70 -15z"/>
<path d="M3943 7265 c0 -33 2 -45 4 -27 2 18 2 45 0 60 -2 15 -4 0 -4 -33z"/>
<path d="M3471 7294 c0 -11 3 -14 6 -6 3 7 2 16 -1 19 -3 4 -6 -2 -5 -13z"/>
<path d="M4077 7091 c-4 -17 -3 -21 5 -13 5 5 8 16 6 23 -3 8 -7 3 -11 -10z"/>
<path d="M3940 7086 c0 -8 4 -17 9 -20 5 -4 7 3 4 14 -6 23 -13 26 -13 6z"/>
<path d="M7663 7083 c147 -2 387 -2 535 0 147 1 26 2 -268 2 -294 0 -415 -1
-267 -2z"/>
<path d="M8422 6669 c-140 -23 -260 -87 -367 -193 -163 -163 -214 -289 -245
-616 -11 -115 -14 -124 -102 -367 -56 -157 -47 -307 24 -398 31 -40 33 -23 5
47 -14 35 -28 92 -31 128 -4 48 -3 57 4 35 7 -23 8 -16 4 27 -6 64 16 157 41
178 19 16 19 18 -5 -85 -24 -101 -25 -156 -6 -246 30 -139 106 -236 232 -296
85 -40 148 -54 138 -30 -5 13 0 13 32 -4 21 -10 52 -22 70 -25 l32 -6 -39 -60
c-39 -61 -40 -61 -176 -123 -278 -124 -293 -137 -381 -314 l-58 -118 -27 21
c-22 16 -47 22 -108 25 l-79 3 7 147 c4 103 2 158 -6 183 -16 47 -80 105 -125
114 l-36 6 0 468 0 468 -34 41 c-18 22 -96 106 -172 186 l-139 145 -60 0 c-60
0 -61 1 -73 33 -7 19 -24 44 -38 58 l-26 24 -901 3 c-496 2 -921 0 -945 -3
-23 -4 -55 -17 -70 -30 l-27 -23 -5 -469 -5 -468 -192 -3 c-239 -3 -245 -1
-326 117 l-55 80 42 25 42 25 52 -26 c48 -23 54 -24 75 -10 37 24 115 107 120
128 3 11 -6 40 -19 66 l-25 46 21 53 c20 49 24 53 78 71 55 18 57 19 65 63 10
58 0 140 -20 163 -9 9 -34 20 -56 24 -36 5 -41 10 -64 61 l-24 55 20 48 c12
26 21 54 21 63 0 8 -26 42 -58 75 -64 67 -87 74 -137 41 -38 -25 -59 -24 -114
3 -35 17 -47 30 -58 62 -21 62 -43 75 -127 74 -97 -1 -106 -6 -125 -69 -16
-52 -19 -55 -71 -76 l-55 -21 -43 25 c-28 16 -50 22 -67 18 -27 -7 -122 -100
-131 -129 -3 -10 6 -39 20 -66 l25 -48 -24 -52 c-13 -28 -30 -53 -37 -55 -7
-3 -25 -7 -41 -10 -54 -12 -67 -37 -67 -126 0 -71 3 -84 23 -104 13 -12 41
-26 64 -29 38 -6 42 -10 63 -62 l22 -55 -27 -46 c-26 -45 -27 -48 -12 -79 l16
-33 -122 -6 c-67 -3 -295 -8 -507 -10 -229 -3 -399 -9 -421 -15 -49 -15 -113
-72 -138 -124 -31 -63 -30 -79 19 -672 5 -66 23 -275 39 -465 17 -190 37 -433
46 -540 33 -414 116 -1416 135 -1635 11 -126 25 -284 30 -350 6 -66 17 -198
25 -293 8 -95 15 -179 15 -187 0 -13 -56 -15 -367 -17 -237 -2 -368 -7 -368
-13 0 -6 131 -11 367 -13 l367 -2 11 -58 c23 -106 84 -193 167 -233 63 -30
111 -29 548 20 403 45 1539 167 2378 256 129 14 431 16 2380 18 1476 1 2234 5
2237 12 3 7 -131 11 -391 13 l-396 2 -7 126 c-14 276 -73 566 -151 746 -5 14
-2 18 11 18 29 0 120 46 135 67 8 11 27 22 42 25 l28 5 -6 -52 c-7 -49 -5 -54
16 -66 36 -20 236 -19 249 1 15 23 13 26 -45 90 -55 60 -63 74 -46 84 5 4 12
25 16 48 6 35 20 55 82 116 l74 73 -2 -110 c-1 -68 3 -116 10 -124 7 -9 8 -24
1 -48 -13 -43 -13 -96 -1 -104 6 -3 61 -8 123 -11 147 -8 164 -8 221 -6 42 2
47 4 47 26 0 30 -9 36 -97 70 -114 43 -113 43 -103 161 5 55 17 190 26 300 16
193 17 202 49 260 45 81 92 201 100 255 8 58 -7 123 -56 239 l-41 94 4 129 3
129 -25 -2 c-56 -4 -60 -1 -60 44 0 23 -3 66 -6 95 l-7 52 -68 0 c-42 0 -69
-4 -69 -11 0 -5 -4 -8 -8 -5 -12 7 -112 173 -112 185 0 6 11 18 25 27 14 9 23
19 21 22 -3 2 -17 -3 -30 -12 -14 -9 -27 -16 -30 -16 -2 0 -25 35 -52 78 -145
235 -244 366 -308 408 -23 15 -142 69 -266 120 l-225 91 -27 54 c-16 29 -28
54 -28 55 0 1 24 4 53 8 131 17 219 64 326 175 73 75 102 141 108 244 7 105
-10 172 -87 344 -60 133 -91 237 -130 438 -26 134 -44 192 -82 269 -61 121
-193 226 -306 242 -31 4 -57 16 -77 34 -81 75 -214 104 -363 79z m648 -263 c9
-12 9 -16 1 -16 -7 0 -9 -6 -6 -12 4 -7 -1 -4 -9 6 -9 11 -16 23 -16 28 0 4
-3 7 -7 7 -17 -3 -24 2 -18 11 7 12 35 -1 55 -24z m-4982 -49 c12 -44 18 -50
72 -77 33 -17 66 -30 73 -30 8 0 36 12 62 26 l47 27 59 -62 60 -61 -27 -50
-27 -49 30 -68 c29 -65 32 -68 78 -79 26 -7 52 -19 56 -26 14 -22 11 -154 -4
-166 -7 -6 -32 -15 -56 -21 -23 -5 -44 -11 -46 -13 -1 -1 -14 -32 -28 -67
l-26 -64 25 -43 c16 -27 23 -51 19 -63 -7 -24 -100 -111 -117 -111 -7 0 -32
11 -56 25 -41 23 -45 24 -68 9 -13 -9 -50 -27 -81 -40 l-58 -23 -5 -173 -5
-173 -128 -3 -127 -3 2 393 3 393 79 5 79 5 52 59 c29 32 55 54 58 50 2 -5 5
-85 6 -179 1 -93 4 -171 6 -173 2 -2 18 -1 36 3 51 12 142 108 164 175 56 166
-16 339 -170 411 -120 57 -270 32 -362 -59 -69 -69 -97 -138 -98 -237 0 -66 5
-90 27 -137 15 -32 43 -74 62 -94 35 -36 36 -39 36 -116 l0 -80 -30 7 c-22 5
-38 0 -67 -19 -21 -14 -44 -26 -51 -26 -19 0 -122 100 -122 119 0 9 9 30 20
46 25 38 25 60 -1 129 -17 44 -27 58 -48 62 -92 21 -86 16 -91 75 -6 70 1 120
20 130 8 5 33 13 55 19 37 9 42 14 64 72 l23 61 -21 44 c-11 24 -21 50 -21 57
0 8 24 40 53 70 57 61 64 62 119 24 34 -23 41 -23 113 6 58 24 60 27 78 81
l19 56 86 -3 86 -3 14 -48z m4687 -294 c21 -32 63 -84 94 -116 31 -32 65 -82
77 -110 l22 -52 -30 -3 c-25 -3 -36 3 -55 27 -29 37 -79 52 -177 53 -129 2
-216 -34 -232 -96 -5 -20 -11 -22 -54 -22 -45 1 -50 4 -64 34 -26 54 -87 75
-200 70 -50 -3 -99 -8 -108 -12 -16 -7 -18 -3 -18 30 0 63 -1 62 185 129 72
26 164 65 205 87 87 46 198 134 231 183 l24 34 31 -89 c16 -49 48 -115 69
-147z m-4651 33 c60 -29 103 -73 138 -139 19 -35 23 -58 23 -132 0 -82 -3 -95
-31 -145 -31 -54 -102 -120 -130 -120 -12 0 -14 32 -14 185 0 143 -3 185 -13
185 -7 0 -44 -31 -82 -70 l-69 -69 -75 -3 -76 -3 -3 -87 c-1 -49 -7 -88 -12
-88 -15 0 -59 64 -75 109 -18 53 -19 163 -1 214 59 163 260 241 420 163z
m2562 -4 c22 -18 44 -53 44 -71 0 -7 -240 -11 -765 -13 l-765 -3 -32 -33 -33
-32 -3 -570 -2 -570 -195 0 -195 0 0 619 c0 616 0 618 21 645 12 15 31 32 43
36 11 5 435 9 941 9 857 1 921 -1 941 -17z m2521 -24 c-3 -8 -6 -5 -6 6 -1 11
2 17 5 13 3 -3 4 -12 1 -19z m-2357 -231 l5 -149 33 -29 32 -29 140 0 140 0 0
-694 0 -694 -72 -6 c-40 -3 -201 -10 -358 -16 -157 -6 -492 -20 -745 -30 -788
-33 -828 -34 -847 -18 -17 12 -18 68 -18 880 -1 594 3 874 10 888 27 51 5 49
870 47 l805 -2 5 -148z m320 -181 c0 -4 -56 -6 -125 -5 -171 5 -169 3 -173
187 l-2 137 150 -155 c82 -85 150 -159 150 -164z m1651 162 c39 -13 49 -41 42
-111 -12 -116 -71 -171 -183 -171 -84 0 -126 23 -157 84 -53 104 -17 191 83
205 27 4 54 8 59 11 16 6 122 -6 156 -18z m-535 -15 c17 -8 36 -25 43 -39 17
-39 13 -113 -9 -160 -29 -58 -71 -77 -162 -72 -64 3 -73 7 -99 36 -28 31 -29
36 -29 132 0 63 4 101 11 106 20 12 121 22 169 17 25 -3 59 -12 76 -20z m869
-37 c49 -49 40 -162 -19 -239 -31 -41 -34 -42 -83 -39 -45 3 -53 1 -66 -20 -8
-12 -17 -38 -21 -56 -22 -119 -135 -270 -273 -362 -179 -119 -300 -104 -465
61 -59 60 -85 95 -117 162 -38 77 -70 190 -71 243 l0 22 37 -19 c53 -27 137
-25 193 4 54 27 76 56 93 126 11 42 20 57 38 63 32 12 69 -6 69 -33 0 -41 52
-119 97 -146 57 -33 160 -35 221 -4 60 31 84 70 107 184 5 24 10 27 44 27 42
0 51 -13 51 -74 0 -38 11 -25 39 45 31 79 80 100 126 55z m-101 -302 c20 -8
21 -38 1 -54 -32 -26 -63 18 -33 48 14 14 12 14 32 6z m-5457 -120 c-1 -2
-149 -5 -327 -8 -572 -10 -753 -17 -786 -31 -17 -7 -44 -30 -60 -51 -26 -34
-29 -45 -29 -118 0 -45 6 -139 13 -211 15 -151 46 -535 67 -815 8 -107 19
-235 25 -285 6 -49 17 -175 25 -280 8 -104 22 -266 30 -360 8 -93 29 -341 45
-550 16 -209 34 -425 40 -480 9 -88 53 -603 80 -935 15 -186 21 -215 48 -270
45 -88 120 -112 192 -60 42 30 66 82 79 170 9 63 97 794 216 1790 14 118 34
289 45 380 11 91 32 262 45 380 43 359 66 544 72 570 20 85 103 171 181 189
26 5 318 20 648 32 569 21 604 22 646 6 53 -20 91 -57 164 -153 56 -75 87
-100 135 -114 26 -8 209 -2 954 30 1408 60 1360 58 1403 36 35 -18 72 -80 72
-121 0 -26 -51 -414 -101 -760 -236 -1644 -280 -1938 -294 -1970 -23 -47 -86
-102 -132 -114 -21 -5 -168 -24 -328 -40 -705 -74 -1462 -155 -1850 -197 -796
-85 -881 -95 -1165 -125 -157 -16 -406 -43 -555 -60 -148 -16 -286 -27 -305
-24 -83 16 -144 68 -187 161 -25 55 -22 27 -93 884 -16 201 -34 417 -40 480
-13 145 -38 449 -50 600 -10 128 -64 781 -110 1335 -74 872 -79 955 -62 955 4
0 8 11 8 24 2 32 41 82 84 109 32 20 52 22 240 28 113 3 353 6 534 7 182 2
332 5 335 7 2 3 15 -5 28 -17 12 -12 22 -23 20 -24z m171 24 c18 -18 14 -32
-5 -17 -11 10 -14 10 -9 2 5 -10 -4 -13 -35 -13 l-41 0 23 20 c28 22 50 25 67
8z m5658 -29 c-4 -26 -3 -38 4 -34 6 3 7 0 4 -9 -12 -32 -27 -16 -20 22 3 20
6 43 6 50 0 6 3 12 6 12 4 0 4 -18 0 -41z m3 -127 c1 -7 -3 -10 -9 -7 -5 3
-10 18 -9 33 0 24 1 25 9 7 5 -11 9 -26 9 -33z m-598 -256 l11 -148 -40 -81
c-33 -70 -124 -218 -353 -581 l-43 -69 -23 94 c-31 129 -55 306 -56 414 -1 71
4 101 21 143 17 42 22 73 22 148 l0 95 23 -12 c12 -7 51 -13 87 -13 86 0 159
30 258 103 42 32 78 57 79 56 2 -1 8 -68 14 -149z m-4111 -71 c0 -80 -1 -85
-22 -89 -13 -3 -338 -10 -723 -16 -1022 -18 -1169 -22 -1190 -40 -17 -14 -17
-34 -11 -280 3 -146 15 -643 26 -1105 11 -462 27 -1119 35 -1460 19 -800 19
-834 0 -815 -16 17 -80 938 -200 2890 -14 223 -32 524 -41 669 -16 245 -16
265 -1 276 19 14 197 20 1067 35 316 6 604 12 640 13 36 2 145 4 243 5 l177 2
0 -85z m4266 -121 c24 -49 24 -160 0 -324 -23 -154 -22 -153 -49 -139 -12 7
-57 38 -100 70 -43 33 -83 59 -89 59 -16 0 -78 -66 -78 -84 0 -10 12 -3 35 22
l36 37 -22 -45 c-20 -42 -40 -61 -217 -215 -25 -22 -42 -33 -37 -25 5 8 49 78
98 155 143 223 227 364 266 445 30 62 36 85 35 135 l-1 59 51 -55 c29 -31 61
-73 72 -95z m-647 59 c-4 -27 -14 -70 -23 -97 -29 -89 -17 -286 33 -533 10
-46 16 -83 14 -83 -6 0 -100 205 -107 233 -4 16 -2 27 4 27 5 0 10 5 10 10 0
13 -46 60 -58 60 -5 0 -44 -23 -87 -51 -42 -27 -79 -48 -82 -46 -6 7 106 261
150 339 34 60 134 188 148 188 3 0 2 -21 -2 -47z m-3209 -83 l0 -40 -97 -1
c-54 0 -551 -10 -1105 -22 -779 -17 -1010 -25 -1020 -35 -10 -10 -12 -363 -9
-1805 2 -1309 0 -1789 -8 -1781 -8 7 -15 140 -21 400 -5 214 -14 565 -20 779
-6 215 -17 678 -25 1030 -8 352 -20 820 -25 1039 -9 343 -9 401 3 414 16 15
158 20 1367 42 338 6 644 12 680 14 36 1 113 3 173 4 l107 2 0 -40z m4095
-118 c317 -129 329 -137 477 -358 168 -250 456 -743 539 -918 82 -175 93 -235
63 -337 -54 -181 -336 -610 -468 -709 -61 -46 -76 -49 -76 -17 0 71 -133 197
-234 221 -26 6 -28 10 -23 43 4 21 39 86 86 157 43 67 106 168 138 226 33 58
66 115 74 128 10 17 11 25 2 30 -6 4 -71 96 -145 204 -142 210 -317 442 -326
434 -3 -3 12 -31 32 -62 l38 -56 -15 -57 c-8 -31 -52 -182 -98 -336 l-83 -280
-1 -150 c0 -82 -5 -158 -9 -168 -26 -55 -225 -98 -524 -113 l-142 -7 2 260 c2
205 0 263 -10 276 -10 12 -34 17 -85 19 -70 3 -72 4 -69 28 12 87 13 142 3
154 -9 10 -4 36 20 102 36 103 157 386 254 594 99 213 175 386 175 399 0 16 6
14 50 -18 46 -33 98 -56 107 -47 12 12 42 212 49 324 5 76 11 111 18 108 6 -3
88 -36 181 -74z m-4095 8 l0 -50 -127 0 c-150 0 -1098 -16 -1561 -26 -280 -6
-326 -9 -344 -24 -19 -15 -21 -31 -29 -281 -10 -309 -56 -1815 -64 -2099 -17
-582 -36 -1124 -39 -1127 -2 -2 -10 -1 -18 2 -13 5 -16 147 -21 1093 -9 1484
-9 2500 1 2506 5 3 229 10 498 16 269 7 734 17 1034 24 300 7 573 14 608 15
l62 1 0 -50z m2170 11 c23 -17 62 -90 40 -76 -5 3 -10 13 -10 20 0 8 -6 12
-14 9 -21 -8 -86 35 -86 58 0 15 5 18 23 13 12 -4 33 -14 47 -24z m832 -23
c-23 -37 -106 -238 -116 -280 -9 -38 16 -37 77 2 26 17 49 30 51 30 1 0 6 -93
9 -207 10 -304 41 -572 94 -811 19 -90 22 -116 13 -128 -9 -10 -11 -37 -6 -94
l7 -80 -70 0 c-104 0 -101 7 -101 -283 l0 -239 -27 6 c-91 22 -137 40 -166 65
-28 26 -32 35 -30 78 10 269 -7 411 -63 548 -14 33 -39 94 -56 135 -46 111
-50 230 -13 371 15 57 36 136 46 174 10 39 18 88 18 110 l-1 40 -9 -36 c-4
-20 -29 -107 -54 -194 -73 -252 -71 -326 11 -528 l44 -109 -67 -130 c-74 -143
-137 -223 -205 -257 -23 -11 -44 -19 -46 -17 -2 2 22 181 52 397 132 941 128
901 111 954 -14 49 -14 49 26 142 72 162 114 210 238 270 107 51 246 111 250
108 2 -2 -6 -19 -17 -37z m-3002 -233 c0 -96 -2 -175 -4 -175 -2 0 -23 26 -46
58 -86 115 -135 156 -209 173 -30 7 -827 -18 -1156 -37 -141 -7 -197 -26 -251
-86 -73 -81 -59 -4 -189 -1093 -50 -426 -78 -658 -129 -1080 -20 -159 -47
-382 -60 -495 -59 -481 -80 -640 -87 -640 -3 0 -5 30 -3 68 2 37 11 306 19
597 9 292 20 679 25 860 6 182 15 490 20 685 27 946 41 1275 56 1290 12 13
109 17 642 27 717 14 921 18 1185 21 l187 2 0 -175z m2227 133 c-3 -8 -6 -5
-6 6 -1 11 2 17 5 13 3 -3 4 -12 1 -19z m-2 -145 c-4 -60 -11 -112 -17 -118
-7 -7 -7 11 -2 55 5 36 8 89 8 118 0 28 4 52 9 52 6 0 7 -41 2 -107z m968
-221 l68 -137 -31 -165 c-17 -91 -33 -200 -37 -243 -3 -42 -7 -76 -9 -74 -23
22 -85 759 -64 756 3 0 36 -62 73 -137z m348 95 c-5 -13 -47 -106 -94 -208
-88 -190 -220 -496 -232 -537 -15 -52 -15 -8 0 109 23 185 64 401 80 426 12
17 243 231 252 233 1 0 -1 -10 -6 -23z m873 -837 l86 -123 -1 -166 c0 -91 -4
-205 -8 -253 -7 -84 -9 -89 -61 -160 -59 -80 -89 -141 -90 -176 0 -13 -21 -49
-46 -80 -26 -31 -49 -63 -51 -69 -3 -7 -11 -13 -17 -13 -24 0 -125 61 -130 78
-27 99 -28 122 -10 150 16 23 19 47 19 177 l0 150 94 327 c93 320 95 326 112
304 10 -13 56 -78 103 -146z m-1184 -240 c0 -40 0 -40 -39 -40 -34 0 -39 3
-44 27 -8 42 1 53 44 53 39 0 39 0 39 -40z m-550 -34 c0 -3 9 -60 21 -128 17
-99 20 -142 14 -218 -11 -129 -9 -157 10 -186 25 -39 5 -177 -44 -307 -123
-323 -180 -619 -188 -979 l-5 -208 -681 0 c-374 0 -678 2 -675 5 5 5 459 56
673 76 164 14 198 24 254 75 35 31 54 59 65 92 9 27 59 347 111 713 52 365 97
669 99 676 3 6 19 14 35 18 78 17 181 137 260 303 19 40 38 72 43 72 4 0 8 -2
8 -4z m530 -87 c0 -57 -1 -60 -22 -57 -20 3 -23 10 -26 61 -3 55 -2 57 23 57
24 0 25 -2 25 -61z m-78 -46 c3 -26 6 -28 53 -28 44 0 50 3 53 22 3 18 11 22
55 25 93 8 87 28 87 -312 0 -165 -3 -300 -7 -300 -5 0 -44 -3 -88 -5 -44 -3
-128 -2 -187 1 l-108 7 0 302 c0 233 3 304 13 308 6 3 38 6 69 6 55 1 57 0 60
-26z m927 -511 c5 -23 8 -42 6 -42 -2 0 -38 7 -81 16 -99 21 -146 15 -236 -28
-105 -50 -127 -77 -92 -113 9 -9 14 -18 12 -20 -2 -3 -62 -9 -133 -14 -235
-18 -542 10 -708 65 l-78 26 7 82 c3 44 8 82 9 84 2 2 29 -6 61 -17 33 -10 76
-22 97 -26 35 -7 37 -9 37 -46 0 -26 7 -46 20 -59 19 -19 33 -20 207 -20 206
0 223 5 223 62 l0 28 78 0 c151 0 465 45 522 75 29 16 34 10 49 -53z m379 -32
c69 -36 88 -52 134 -112 60 -79 59 -91 -14 -165 -34 -34 -66 -63 -69 -63 -4 0
-12 15 -18 33 -18 54 -124 170 -188 205 -16 9 -16 12 0 36 26 39 78 96 88 96
5 0 35 -13 67 -30z m-462 -21 c33 -6 101 -32 157 -60 54 -28 105 -48 112 -45
33 12 181 -124 200 -185 14 -42 -94 -119 -166 -119 -20 0 -67 11 -106 25 -80
28 -98 25 -206 -26 -61 -29 -117 -38 -117 -20 0 14 100 84 175 123 62 32 80
48 52 48 -38 0 -138 -36 -228 -80 -65 -33 -107 -49 -120 -45 -28 9 -24 19 24
57 66 55 134 93 231 129 101 38 92 52 -12 18 -89 -29 -125 -48 -198 -103 -104
-78 -148 -63 -65 21 67 68 128 107 228 144 94 36 93 44 -6 54 -52 5 -80 2
-131 -14 -67 -21 -130 -27 -130 -13 0 30 145 101 206 102 22 0 67 -5 100 -11z
m-1061 -130 c212 -50 472 -62 721 -33 74 8 139 14 145 12 5 -2 -15 -23 -45
-46 -54 -43 -106 -107 -106 -130 0 -6 11 -19 25 -28 14 -9 25 -22 25 -29 0
-12 41 -35 64 -35 7 0 40 13 72 30 32 16 60 30 62 30 1 0 -13 -14 -32 -30 -34
-30 -39 -61 -13 -77 23 -14 88 -1 160 32 89 41 111 43 194 13 l62 -22 30 -81
c70 -186 118 -434 128 -662 l6 -143 -948 0 -948 0 6 228 c6 235 19 350 63 552
24 108 103 360 138 442 l16 37 44 -19 c24 -11 83 -29 131 -41z m946 16 c-13
-7 -33 -10 -44 -7 -18 5 -19 6 -4 11 9 3 29 7 44 8 l28 1 -24 -13z"/>
<path d="M8563 5948 c-15 -7 -23 -20 -23 -36 0 -24 1 -24 53 -16 74 12 168 8
211 -10 28 -12 36 -12 36 -2 0 18 -29 43 -73 61 -42 17 -170 19 -204 3z"/>
<path d="M8113 5925 c-31 -13 -71 -60 -60 -71 3 -3 20 3 39 12 25 14 54 18
121 18 78 -1 87 1 87 17 0 10 -9 23 -19 29 -28 14 -130 12 -168 -5z"/>
<path d="M5618 5443 l-87 -87 -31 29 c-30 29 -30 29 -50 9 -20 -20 -20 -20 29
-68 30 -30 55 -47 64 -43 23 9 208 218 204 231 -10 32 -46 13 -129 -71z m102
43 c-7 -9 -17 -13 -23 -9 -5 3 -7 1 -4 -4 4 -6 -30 -50 -75 -97 l-81 -87 -43
42 c-29 28 -40 47 -34 53 10 10 53 -21 45 -33 -2 -4 4 -7 14 -8 10 -1 56 37
107 88 55 55 92 85 98 79 6 -6 4 -15 -4 -24z"/>
<path d="M5623 4995 c-43 -47 -82 -85 -87 -85 -6 0 -22 11 -36 25 l-27 25 -18
-20 c-18 -20 -18 -21 30 -70 27 -28 52 -50 56 -50 4 0 53 52 109 115 66 74
100 120 96 130 -12 33 -46 13 -123 -70z m87 28 c-18 -21 -64 -71 -103 -112
l-69 -73 -44 43 c-50 49 -45 79 6 35 17 -14 35 -26 38 -26 4 0 42 38 85 85 49
53 86 85 99 85 18 0 17 -4 -12 -37z"/>
<path d="M5626 4545 c-44 -47 -85 -85 -90 -85 -6 0 -23 12 -39 28 -28 26 -29
27 -43 8 -8 -11 -14 -23 -14 -26 0 -3 22 -28 50 -55 58 -57 45 -64 172 83 74
85 88 105 78 117 -7 8 -17 15 -23 15 -5 0 -46 -38 -91 -85z m104 59 c0 -14
-132 -154 -140 -149 -5 3 -12 0 -16 -6 -4 -8 -3 -9 4 -5 22 13 12 -10 -12 -32
l-25 -21 -47 43 c-32 29 -43 46 -35 51 7 4 22 -1 34 -12 45 -41 46 -40 131 50
71 76 106 102 106 81z"/>
<path d="M8635 5796 c-32 -14 -58 -41 -68 -68 -9 -26 3 -22 41 15 l33 32 -6
-28 c-4 -15 -2 -40 5 -57 25 -60 110 -21 98 45 -6 32 2 32 32 0 23 -25 40 -25
40 -1 0 19 -76 67 -113 72 -18 2 -45 -2 -62 -10z"/>
<path d="M8140 5778 c-51 -27 -70 -52 -53 -69 10 -10 17 -6 33 14 12 15 30 27
40 27 16 0 18 -4 11 -23 -13 -33 8 -71 40 -75 34 -4 59 21 59 61 l0 32 20 -25
c13 -17 20 -20 20 -10 0 25 -27 56 -64 74 -44 21 -53 20 -106 -6z"/>
<path d="M9071 5705 c-20 -18 -31 -36 -31 -53 0 -29 14 -21 34 19 6 13 22 26
34 29 13 3 23 10 23 15 0 20 -29 15 -60 -10z"/>
<path d="M8377 5645 c-45 -152 -47 -164 -36 -187 11 -24 47 -53 56 -45 2 3 -7
16 -21 30 -31 31 -31 28 -5 122 11 42 19 81 16 88 -2 7 -6 3 -10 -8z"/>
<path d="M9046 5583 c-6 -14 -5 -15 5 -6 7 7 10 15 7 18 -3 3 -9 -2 -12 -12z"/>
<path d="M8610 5343 c-33 -11 -86 -15 -197 -14 -84 1 -153 -1 -153 -3 0 -2 17
-23 37 -45 49 -55 123 -78 191 -61 65 16 116 47 152 91 44 55 43 56 -30 32z
m-6 -39 c-75 -60 -178 -74 -254 -33 l-45 24 125 7 c69 4 139 11 155 16 37 11
44 6 19 -14z"/>
<path d="M8450 5170 c-42 -3 -59 -8 -47 -12 26 -11 89 -10 107 2 22 14 11 15
-60 10z"/>
<path d="M3258 5363 c23 -2 59 -2 80 0 20 2 1 4 -43 4 -44 0 -61 -2 -37 -4z"/>
<path d="M2352 5150 c0 -19 2 -27 5 -17 2 9 2 25 0 35 -3 9 -5 1 -5 -18z"/>
<path d="M5970 3623 c-20 -25 -20 -28 -5 -31 10 -2 32 10 49 27 l31 31 -27 0
c-17 0 -34 -10 -48 -27z"/>
<path d="M7064 3619 c-38 -11 -60 -35 -68 -75 -9 -43 17 -72 79 -87 56 -13 70
-38 34 -57 -17 -10 -31 -10 -61 0 -44 13 -43 13 -52 -16 -9 -29 38 -49 97 -41
53 7 87 44 87 92 0 40 -20 57 -87 75 -32 8 -43 16 -43 31 0 29 43 46 77 30 21
-10 28 -9 34 1 11 16 11 35 2 41 -19 11 -71 15 -99 6z"/>
<path d="M6787 3603 c-4 -3 -7 -66 -7 -140 l0 -133 43 0 c23 0 66 3 94 6 46 6
52 9 49 28 -3 19 -10 21 -67 21 l-64 0 0 30 c0 29 2 30 55 35 30 3 54 8 53 13
-2 4 -3 14 -3 22 0 11 -12 15 -49 15 -41 0 -51 4 -56 20 -10 32 3 40 66 40 56
0 59 1 59 25 0 25 -1 25 -83 25 -46 0 -87 -3 -90 -7z"/>
<path d="M6572 3593 c-27 -4 -33 -8 -30 -26 2 -17 11 -23 41 -25 l37 -3 0
-110 0 -109 25 0 c24 0 24 0 27 113 l3 112 38 3 c32 3 37 7 37 28 0 23 -2 24
-72 22 -40 0 -88 -3 -106 -5z"/>
<path d="M6460 3450 l0 -140 25 0 25 0 0 140 0 140 -25 0 -25 0 0 -140z"/>
<path d="M6311 3493 l-43 -87 -41 79 c-36 68 -46 80 -70 83 l-28 3 3 -138 3
-138 25 0 c24 0 25 1 24 73 -1 39 1 72 5 72 3 0 20 -24 36 -52 17 -28 35 -53
42 -55 7 -3 27 26 47 64 l35 68 1 -81 c0 -81 0 -81 25 -76 l25 4 0 134 c0 133
0 134 -23 134 -18 0 -30 -16 -66 -87z"/>
<path d="M4342 3537 c-27 -28 -29 -49 -4 -40 21 7 62 43 62 55 0 17 -37 7 -58
-15z"/>
<path d="M5946 3552 c-3 -5 -25 -63 -50 -128 -24 -65 -47 -127 -51 -137 -7
-16 -3 -18 21 -15 22 2 33 11 43 36 14 30 17 32 68 32 48 0 54 -3 63 -25 7
-18 17 -25 35 -25 14 0 25 6 24 13 0 6 -21 66 -47 132 -43 108 -50 120 -74
123 -14 2 -29 -1 -32 -6z m58 -140 c7 -20 4 -22 -29 -22 -34 0 -37 2 -31 25 3
13 11 37 17 52 l11 28 13 -31 c7 -17 16 -40 19 -52z"/>
<path d="M5658 3543 l-38 -4 0 -140 0 -140 28 3 c23 3 27 8 30 38 3 32 15 49
34 50 4 0 20 -18 34 -40 21 -32 33 -40 56 -40 l30 0 -26 45 c-25 46 -25 46 -6
65 14 14 20 34 20 66 0 58 -12 79 -51 93 -32 11 -40 11 -111 4z m110 -88 c4
-34 -18 -55 -60 -55 -27 0 -28 2 -28 46 l0 45 43 -3 c38 -3 42 -6 45 -33z"/>
<path d="M5452 3533 c-73 -4 -73 -4 -70 -31 3 -25 6 -27 41 -24 l37 4 0 -116
0 -116 25 0 25 0 0 115 c0 115 0 115 24 115 40 0 56 11 56 36 0 21 -4 24 -32
22 -18 -1 -66 -4 -106 -5z"/>
<path d="M5113 3513 l-33 -4 0 -140 0 -139 38 0 c20 0 61 3 90 6 47 6 52 9 52
32 0 24 -1 24 -65 17 l-65 -7 0 35 0 34 61 7 c55 6 60 9 57 29 -3 20 -8 22
-61 19 l-58 -4 3 34 3 33 63 3 c58 3 62 4 62 27 0 24 -3 25 -57 23 -32 0 -73
-3 -90 -5z"/>
<path d="M4823 3493 l-33 -4 0 -140 0 -139 28 0 c74 0 147 20 175 48 55 55 56
161 2 212 -20 19 -38 24 -83 26 -31 1 -72 0 -89 -3z m142 -76 c15 -22 20 -73
9 -102 -9 -22 -57 -45 -94 -45 l-30 0 0 84 0 85 28 3 c44 5 72 -3 87 -25z"/>
<path d="M4497 3453 c-15 -31 -97 -247 -97 -257 0 -3 11 -6 26 -6 19 0 28 7
35 29 8 22 18 30 47 35 68 11 79 8 91 -24 8 -25 15 -30 41 -30 37 0 39 -13
-29 155 -43 107 -51 120 -74 123 -20 3 -29 -3 -40 -25z m56 -97 l15 -44 -31
-6 c-16 -3 -32 -4 -35 -1 -7 7 19 95 28 95 5 0 15 -20 23 -44z"/>
<path d="M4310 3331 l0 -141 30 0 31 0 -3 138 -3 137 -27 3 -28 3 0 -140z"/>
<path d="M4200 3364 c0 -115 -8 -134 -56 -134 -45 0 -54 23 -54 136 l0 85 -27
-3 c-27 -3 -28 -6 -30 -58 -3 -109 7 -161 37 -192 48 -48 141 -32 169 29 7 15
16 74 19 131 l5 102 -32 0 -31 0 0 -96z"/>
<path d="M3830 3432 c-39 -21 -80 -89 -80 -134 0 -42 24 -92 55 -116 32 -25
104 -30 145 -9 22 11 26 21 30 75 l5 62 -27 0 c-26 0 -28 -3 -28 -44 0 -31 -5
-46 -16 -50 -30 -12 -55 -6 -79 19 -55 54 -18 155 58 155 18 0 38 -5 45 -12
10 -10 17 -8 34 9 l21 22 -34 20 c-42 26 -84 27 -129 3z"/>
<path d="M9449 4418 c-23 -29 -52 -75 -65 -103 -26 -56 -54 -158 -53 -190 0
-11 9 10 19 47 22 84 69 184 106 228 49 59 57 70 46 70 -6 0 -29 -24 -53 -52z"/>
<path d="M9904 3244 c-39 -26 -73 -62 -74 -77 0 -4 15 7 34 26 18 18 53 43 77
55 30 15 37 22 23 22 -12 0 -39 -12 -60 -26z"/>
<path d="M9893 3149 c-70 -34 -71 -51 -2 -23 42 17 85 27 125 28 78 1 60 16
-21 16 -41 0 -73 -7 -102 -21z"/>
<path d="M2660 5794 c0 -6 9 -29 20 -52 11 -22 20 -56 20 -73 0 -35 13 -32 15
4 3 34 -15 87 -36 110 -10 12 -19 16 -19 11z"/>
<path d="M2505 5730 c-29 -56 -49 -140 -33 -140 4 0 8 7 8 16 0 8 14 47 30 86
37 87 34 113 -5 38z"/>
<path d="M2365 5595 c22 -18 50 -44 63 -56 12 -12 22 -17 22 -10 0 18 -88 101
-107 101 -13 0 -7 -10 22 -35z"/>
<path d="M2575 5589 c-4 -6 -5 -12 -2 -15 2 -3 7 2 10 11 7 17 1 20 -8 4z"/>
<path d="M2721 5500 c0 -8 4 -22 9 -30 12 -18 12 -2 0 25 -6 13 -9 15 -9 5z"/>
<path d="M2276 5391 c-9 -16 -16 -38 -16 -48 0 -10 9 2 20 26 23 50 19 68 -4
22z"/>
<path d="M9932 5276 c-18 -9 -35 -22 -38 -30 -3 -8 -16 -17 -29 -20 -37 -9
-48 -42 -50 -148 -1 -79 2 -104 16 -128 10 -16 23 -30 29 -30 16 0 12 12 -12
37 -12 13 -16 23 -10 23 6 0 14 -5 18 -11 4 -8 9 -7 16 2 7 11 8 11 6 -1 -5
-31 14 -126 30 -150 9 -14 17 -31 18 -39 3 -18 63 -79 85 -86 10 -3 20 -14 22
-23 3 -9 5 2 6 25 1 41 3 43 42 53 34 9 44 18 60 53 19 43 26 102 10 93 -5 -3
-13 0 -19 7 -12 14 -13 69 -1 62 4 -3 11 0 15 6 4 8 9 7 15 -2 6 -10 9 -7 9
11 0 14 3 35 6 48 6 19 3 22 -25 22 -25 0 -31 -4 -29 -17 2 -10 -3 -17 -9 -15
-7 1 -14 -6 -15 -15 -5 -49 -3 -81 4 -77 4 3 8 1 8 -4 0 -5 -32 -8 -72 -7 -82
2 -97 14 -100 81 -1 30 22 115 39 143 2 2 31 -3 65 -12 35 -9 81 -18 104 -20
37 -4 42 -2 63 28 27 41 26 93 -4 109 -11 6 -22 14 -25 17 -3 4 -27 9 -55 13
-132 16 -161 16 -193 2z m-55 -256 c4 -12 3 -13 -5 -1 -6 8 -17 11 -26 8 -9
-4 -16 -2 -16 4 0 16 43 6 47 -11z m225 -162 c-12 -12 -54 -7 -59 8 -2 6 10 8
33 6 23 -3 32 -8 26 -14z"/>
<path d="M1599 5241 c-53 -4 -93 -12 -104 -21 -48 -40 -37 -111 20 -131 25 -9
35 -20 39 -43 4 -17 18 -48 32 -69 13 -21 22 -42 18 -48 -3 -6 2 -19 12 -31
19 -20 19 -20 -6 -17 -22 4 -25 10 -28 51 -2 25 -9 48 -15 51 -32 12 -63 -48
-47 -88 9 -21 11 -18 15 33 5 58 22 59 24 1 1 -56 -15 -90 -32 -67 -6 9 -7 8
-3 -5 3 -10 6 -24 6 -30 0 -7 4 -6 10 3 8 12 12 13 19 2 6 -11 10 -10 15 3 9
26 7 42 -4 25 -6 -9 -10 -10 -10 -3 0 19 17 24 30 8 7 -8 18 -15 24 -15 12 0
42 -40 38 -52 -2 -8 28 -12 63 -8 11 1 17 -1 13 -5 -13 -13 -77 -12 -82 1 -3
8 -15 14 -26 14 -22 0 -28 25 -7 33 7 3 5 6 -5 6 -17 1 -23 -16 -20 -59 0 -10
-5 -8 -18 8 -19 23 -30 28 -30 13 0 -18 31 -41 55 -41 19 0 23 4 18 18 -3 9 3
6 12 -8 10 -14 19 -26 21 -28 1 -2 16 3 32 12 16 8 49 18 72 22 25 4 37 10 29
14 -7 5 -19 6 -28 3 -12 -3 -11 0 3 11 21 17 16 33 -6 20 -7 -5 -21 -7 -32 -5
-10 1 -16 -1 -13 -7 4 -5 0 -9 -8 -9 -7 0 -13 8 -12 18 1 14 8 16 37 13 33 -4
33 -4 10 7 -14 6 -30 12 -37 13 -16 3 -28 15 -28 29 0 7 -6 13 -12 13 -7 1
-18 2 -23 3 -7 1 -7 8 0 21 6 11 8 25 5 30 -3 5 -1 11 4 15 6 3 8 12 5 20 -4
8 -10 12 -15 9 -5 -3 -7 -10 -4 -15 4 -5 3 -14 -1 -20 -11 -19 -24 13 -13 33
12 22 35 23 43 2 9 -24 7 -62 -4 -69 -5 -3 -10 -11 -10 -16 0 -6 4 -8 9 -5 4
3 19 -6 31 -19 25 -27 91 -50 121 -42 11 3 17 1 13 -4 -3 -5 -12 -9 -20 -9
-15 0 -15 -21 1 -32 25 -19 41 -8 37 25 -2 18 10 71 28 125 24 73 30 102 25
137 -9 59 -36 99 -87 128 -52 31 -88 36 -199 28z"/>
<path d="M10934 5071 c-70 -42 -114 -140 -114 -251 0 -38 -5 -92 -11 -119 -10
-46 -8 -56 15 -105 14 -30 26 -58 26 -63 0 -4 -14 -16 -30 -25 -32 -18 -69
-86 -70 -126 0 -34 17 -18 24 23 12 62 78 119 161 139 16 4 37 14 45 22 8 8
37 29 65 47 27 17 51 40 53 50 3 15 -2 14 -34 -8 -80 -54 -150 -22 -180 82
-21 73 -16 127 14 131 30 5 28 20 -4 24 l-26 3 24 34 c13 19 37 43 55 53 l32
19 26 -45 c26 -44 87 -106 105 -106 5 0 16 -7 24 -15 11 -12 20 -13 34 -6 22
12 42 -3 42 -30 0 -20 -36 -49 -61 -49 -19 0 -28 -63 -21 -136 4 -39 7 -42 45
-54 57 -17 148 -64 169 -87 25 -28 56 -102 64 -153 3 -25 12 -67 20 -95 7 -27
16 -88 20 -135 3 -47 11 -90 16 -97 13 -16 0 -58 -27 -83 -31 -29 -108 -30
-189 -1 -89 31 -109 47 -101 79 3 15 9 42 12 60 5 29 8 33 32 28 77 -15 182
-27 191 -21 20 12 -1 25 -41 25 -47 0 -48 2 -74 138 -10 50 -21 92 -26 92 -9
0 -6 -34 16 -152 l12 -68 -69 7 -68 6 6 -29 c3 -16 1 -42 -5 -57 l-11 -28 -37
20 c-21 11 -58 25 -83 32 -41 11 -43 13 -20 19 23 6 21 7 -15 14 -22 4 -47 12
-55 17 -15 11 -2 9 65 -7 15 -4 25 -2 25 4 0 6 -25 16 -55 23 -30 7 -55 16
-55 22 0 5 12 6 26 3 66 -17 87 -19 80 -8 -3 6 -27 14 -51 18 -25 3 -48 11
-52 17 -4 7 8 8 35 3 28 -4 42 -3 42 5 0 6 -18 50 -40 97 l-40 85 -98 -6 c-53
-4 -131 -7 -172 -7 -110 0 -111 -3 -64 -104 23 -50 45 -85 54 -86 12 0 11 -3
-3 -11 -9 -5 -22 -7 -27 -4 -6 3 -10 -1 -10 -9 0 -10 6 -13 15 -10 21 8 19
-13 -2 -25 -16 -9 -15 -10 5 -11 14 0 21 -4 16 -11 -4 -8 4 -9 27 -4 53 11 71
27 24 21 -28 -4 -35 -2 -25 4 8 5 30 10 48 10 51 0 40 -26 -18 -41 -27 -7 -50
-17 -50 -22 0 -4 8 -6 18 -3 55 16 75 18 68 7 -4 -6 -14 -11 -22 -11 -8 0 -14
-4 -14 -10 0 -5 -9 -10 -20 -10 -24 0 -24 -3 -6 -38 23 -45 54 -66 98 -67 27
-1 43 -6 46 -16 3 -7 12 -22 20 -32 14 -16 13 -23 -6 -80 -35 -98 -52 -209
-52 -336 0 -107 11 -224 86 -876 14 -121 28 -250 33 -288 4 -37 12 -72 17 -77
6 -6 37 -14 69 -18 32 -4 60 -12 62 -18 6 -18 -46 -73 -90 -96 -32 -16 -53
-19 -96 -15 -48 4 -61 1 -88 -20 -61 -45 -41 -63 66 -63 52 0 78 6 112 23 43
23 44 23 60 4 9 -12 22 -18 32 -14 21 8 32 101 19 161 -8 36 -7 48 4 54 10 6
15 63 20 250 l7 243 -26 27 c-14 15 -31 50 -38 77 -7 28 -29 78 -49 111 -60
101 -95 172 -88 179 33 33 218 -134 343 -309 11 -16 40 -54 63 -85 44 -56 92
-141 92 -161 0 -7 -6 -7 -21 0 -37 20 -163 69 -167 66 -2 -3 1 -13 6 -23 5
-10 15 -44 22 -75 l13 -58 98 0 97 0 -5 59 c-7 70 6 115 17 66 4 -16 8 -51 9
-77 1 -36 5 -48 16 -48 9 0 15 9 15 24 0 115 13 434 19 448 7 18 8 18 30 -1
12 -11 27 -21 33 -23 5 -2 1 -53 -12 -128 -31 -183 -48 -320 -39 -326 12 -7
16 7 23 86 14 146 48 326 82 426 l34 101 -1 314 0 314 -24 -65 c-14 -36 -36
-112 -49 -170 -35 -147 -42 -166 -62 -149 -71 58 -61 259 21 424 21 41 27 61
16 47 -11 -12 -36 -63 -57 -112 -20 -50 -41 -93 -46 -96 -11 -7 -10 -151 2
-193 5 -18 17 -45 27 -60 9 -14 16 -33 15 -41 -3 -13 -2 -13 7 0 22 32 21 -5
-3 -161 -14 -90 -26 -177 -28 -194 -2 -16 -9 22 -17 85 -7 63 -17 135 -22 159
-5 24 -12 107 -15 185 -8 205 -19 266 -70 391 -51 122 -55 141 -35 137 8 -2
41 -3 73 -3 68 -1 99 15 124 63 22 42 14 156 -21 293 -14 55 -26 105 -25 110
0 6 3 29 6 52 7 52 -21 108 -72 141 -34 22 -35 25 -28 60 16 71 11 138 -13
169 -38 46 -59 94 -77 169 -22 91 -45 128 -95 154 -55 27 -172 28 -217 1z
m-261 -948 c3 -5 -11 -9 -30 -9 -23 -1 -30 1 -22 7 17 11 46 12 52 2z m427
-152 c0 -22 44 -62 89 -80 31 -14 42 -31 18 -31 -7 0 -50 -5 -95 -10 -60 -8
-106 -8 -165 1 -45 6 -95 12 -110 13 -29 1 -56 32 -41 46 5 4 70 10 145 12
137 4 165 10 152 31 -11 18 -12 37 -2 37 5 0 9 -9 9 -19z m156 -623 c92 -127
142 -257 154 -408 22 -271 24 -261 -19 -98 -40 147 -76 246 -87 235 -3 -3 3
-34 15 -69 24 -73 61 -225 61 -251 0 -26 -121 129 -137 176 -7 21 -22 119 -33
217 -11 99 -23 197 -26 220 -10 60 17 52 72 -22z m-180 -315 c-3 -3 -12 0 -21
7 -11 9 -15 32 -14 89 l1 76 20 -83 c11 -46 17 -86 14 -89z"/>
<path d="M9993 5053 c-28 -11 -10 -24 29 -21 51 4 66 28 16 27 -18 0 -39 -3
-45 -6z"/>
<path d="M1500 5033 c0 -4 5 -15 10 -23 7 -11 12 -12 21 -3 8 8 6 14 -10 22
-12 7 -21 8 -21 4z"/>
<path d="M844 5012 c-46 -22 -89 -72 -100 -117 -4 -16 -22 -44 -40 -61 -27
-25 -34 -39 -34 -70 0 -78 61 -139 130 -132 l41 4 -7 -42 c-5 -37 -2 -47 31
-93 20 -28 38 -51 39 -51 1 0 2 9 2 20 0 11 -4 20 -9 20 -5 0 -4 6 2 14 7 8
22 12 34 9 20 -4 20 -3 4 7 -10 7 -28 9 -40 6 -20 -5 -21 -4 -4 8 16 13 16 15
-13 39 -16 14 -30 32 -30 39 0 7 10 1 21 -14 19 -26 98 -78 118 -78 6 0 11 11
11 25 0 17 9 29 30 40 39 20 66 75 74 154 4 35 11 72 16 82 29 54 -6 142 -70
178 -59 33 -151 38 -206 13z m208 -109 c9 -10 23 -32 31 -49 l16 -30 -28 4
c-21 3 -30 -1 -35 -15 -3 -10 -9 -24 -12 -32 -4 -7 3 -4 15 8 39 39 50 19 42
-74 -1 -5 -12 3 -26 18 -14 15 -29 27 -32 27 -4 0 -2 -5 5 -12 19 -19 14 -36
-15 -47 l-28 -11 33 3 c17 2 32 0 32 -4 0 -13 -37 -20 -64 -13 -21 5 -23 9
-13 24 6 10 15 17 19 14 4 -3 5 3 1 13 -6 16 -5 16 10 4 20 -16 20 -14 7 25
-8 21 -18 30 -36 32 -21 2 -25 -2 -22 -21 2 -12 9 -21 16 -19 6 1 12 -2 12 -8
0 -5 -8 -10 -19 -10 -30 0 -13 -62 19 -71 47 -13 72 -10 77 10 4 16 33 39 33
27 0 -19 -42 -95 -55 -100 -27 -10 -87 -7 -80 4 3 5 0 7 -7 5 -17 -7 -98 45
-98 62 0 6 -13 21 -30 33 -46 33 -38 98 9 69 15 -10 24 -9 46 5 15 10 46 20
69 23 47 5 51 7 41 23 -4 7 -15 10 -25 7 -10 -3 -2 11 21 34 22 22 39 44 39
49 0 15 15 12 32 -7z"/>
<path d="M1045 4780 c-5 -9 15 -50 25 -50 3 0 5 14 6 30 1 29 -18 42 -31 20z"/>
<path d="M10010 4994 c0 -31 23 -28 28 4 2 15 -2 22 -12 22 -11 0 -16 -9 -16
-26z"/>
<path d="M1495 4900 c-3 -5 -1 -10 4 -10 6 0 11 5 11 10 0 6 -2 10 -4 10 -3 0
-8 -4 -11 -10z"/>
<path d="M10980 4881 c0 -9 62 -22 70 -14 8 7 -24 23 -47 23 -13 0 -23 -4 -23
-9z"/>
<path d="M10895 4840 c-7 -12 2 -30 16 -30 12 0 12 27 0 35 -5 3 -12 1 -16 -5z"/>
<path d="M11000 4830 c0 -11 5 -20 10 -20 6 0 10 9 10 20 0 11 -4 20 -10 20
-5 0 -10 -9 -10 -20z"/>
<path d="M10925 4797 c-5 -18 -3 -33 4 -40 16 -16 20 -6 12 33 l-8 35 -8 -28z"/>
<path d="M9730 4730 c-9 -6 -10 -10 -3 -10 6 0 15 5 18 10 8 12 4 12 -15 0z"/>
<path d="M10970 4690 c-8 -5 -10 -10 -5 -10 6 0 17 5 25 10 8 5 11 10 5 10 -5
0 -17 -5 -25 -10z"/>
<path d="M9742 4420 c0 -19 2 -27 5 -17 2 9 2 25 0 35 -3 9 -5 1 -5 -18z"/>
<path d="M2057 4253 c-12 -282 -10 -313 12 -313 17 0 20 8 23 53 4 70 -2 162
-11 149 -3 -5 -5 55 -3 134 2 83 0 144 -6 144 -5 0 -12 -75 -15 -167z"/>
<path d="M74 4399 c-7 -12 -1 -89 22 -269 22 -175 12 -160 97 -160 l73 0 19
93 c10 50 22 98 28 105 5 7 31 12 59 12 l50 0 -4 -105 -4 -105 63 0 62 0 3
-42 3 -43 229 -3 c127 -1 227 0 224 3 -3 3 -50 6 -104 6 -76 1 -93 3 -74 11
14 5 50 12 80 14 72 7 77 14 9 15 -49 2 -51 2 -19 9 l35 7 -35 2 c-19 0 -73
11 -121 22 -85 21 -87 22 -78 46 6 16 5 22 -1 18 -9 -6 -12 -2 -14 28 -1 6 -7
18 -13 25 -7 7 -13 26 -13 42 0 46 -31 243 -41 263 -9 15 -32 17 -269 17 -177
0 -261 -3 -266 -11z m526 -46 c0 -43 -5 -41 -13 5 -4 18 -2 32 3 32 6 0 10
-16 10 -37z m7 -95 c-2 -13 -4 -5 -4 17 -1 22 1 32 4 23 2 -10 2 -28 0 -40z
m10 -65 c-3 -10 -5 -4 -5 12 0 17 2 24 5 18 2 -7 2 -21 0 -30z m10 -65 c-3 -7
-5 -2 -5 12 0 14 2 19 5 13 2 -7 2 -19 0 -25z m15 -47 c2 -17 1 -28 -4 -25 -8
5 -12 54 -4 54 2 0 6 -13 8 -29z"/>
<path d="M1125 4389 c-110 -11 -135 -16 -135 -30 0 -5 19 -35 41 -65 35 -45
42 -63 43 -103 2 -52 23 -93 57 -112 20 -10 21 -9 15 16 -4 17 -3 24 4 20 5
-3 10 1 10 9 0 19 16 21 23 4 4 -8 8 -4 12 10 4 12 11 22 17 22 5 0 -4 16 -19
35 -29 37 -57 48 -46 18 12 -30 -16 -4 -68 65 l-50 67 33 7 c18 4 67 10 108
13 144 13 127 19 194 -68 39 -51 62 -73 67 -65 7 11 -73 126 -110 156 -16 13
-62 14 -196 1z m-24 -186 c0 -5 2 -16 4 -26 2 -9 -1 -15 -6 -11 -5 3 -7 10 -4
15 4 5 1 9 -4 9 -6 0 -11 5 -11 10 0 11 20 14 21 3z"/>
<path d="M1686 4358 c-3 -13 -7 -43 -11 -68 -13 -108 -49 -268 -66 -302 -26
-51 -63 -73 -121 -73 -61 0 -63 -18 -3 -40 93 -36 158 10 190 134 17 65 35
371 22 371 -4 0 -9 -10 -11 -22z"/>
<path d="M9736 4363 c-6 -14 -5 -15 5 -6 7 7 10 15 7 18 -3 3 -9 -2 -12 -12z"/>
<path d="M9972 4200 c-23 -17 -42 -33 -42 -36 0 -3 17 8 37 23 20 15 39 27 42
25 3 -2 7 1 9 7 6 17 -1 14 -46 -19z"/>
<path d="M10035 4220 c-3 -5 -1 -10 4 -10 6 0 11 5 11 10 0 6 -2 10 -4 10 -3
0 -8 -4 -11 -10z"/>
<path d="M10085 4220 c29 -7 29 -8 4 -9 -14 0 -28 -4 -31 -7 -10 -10 4 -44 18
-44 8 0 14 -4 14 -10 0 -5 -7 -10 -15 -10 -8 0 -15 -5 -15 -11 0 -7 10 -9 25
-7 40 8 30 -1 -37 -32 -35 -17 -56 -30 -48 -30 42 1 146 70 152 102 2 7 9 18
17 24 8 6 11 16 6 24 -5 9 -9 9 -15 1 -3 -7 -24 -14 -46 -16 l-39 -5 40 13 40
13 -34 7 c-44 9 -74 7 -36 -3z"/>
<path d="M10359 4220 c-62 -18 -93 -82 -58 -121 11 -13 17 -18 13 -10 -5 11
-3 13 10 8 10 -4 24 -7 32 -7 9 0 12 -5 8 -11 -4 -8 0 -7 15 1 23 12 38 37 28
46 -3 3 -29 12 -59 19 l-53 14 63 -3 c45 -1 62 2 62 11 0 7 -12 14 -27 14
l-28 1 30 7 c18 4 30 13 31 24 1 11 0 12 -3 3 -2 -9 -11 -12 -19 -9 -13 5 -13
7 -2 14 17 11 -6 11 -43 -1z m23 -100 c10 0 17 -4 13 -9 -7 -12 -76 -2 -90 12
-7 6 1 8 24 3 18 -3 42 -6 53 -6z"/>
<path d="M1407 4133 c-11 -10 -8 -63 3 -63 6 0 10 16 10 35 0 36 -2 40 -13 28z"/>
<path d="M9921 4124 c0 -11 3 -14 6 -6 3 7 2 16 -1 19 -3 4 -6 -2 -5 -13z"/>
<path d="M1130 3995 c0 -19 23 -44 50 -53 30 -11 97 -6 105 8 6 10 -49 30
-100 36 -21 3 -43 8 -47 10 -4 3 -8 2 -8 -1z"/>
<path d="M940 3960 c-18 -12 -2 -12 25 0 13 6 15 9 5 9 -8 0 -22 -4 -30 -9z"/>
<path d="M995 3949 c-11 -16 16 -69 35 -69 23 0 29 8 23 30 -7 25 -50 54 -58
39z m44 -42 c12 -15 12 -17 -3 -11 -9 3 -16 13 -16 22 0 8 1 13 3 11 1 -2 9
-12 16 -22z"/>
<path d="M498 3873 c6 -2 18 -2 25 0 6 3 1 5 -13 5 -14 0 -19 -2 -12 -5z"/>
<path d="M155 3860 c8 -13 65 -13 85 0 11 7 0 10 -38 10 -33 0 -51 -4 -47 -10z"/>
<path d="M11549 3803 c-13 -16 -12 -17 4 -4 16 13 21 21 13 21 -2 0 -10 -8
-17 -17z"/>
<path d="M1442 3718 c9 -27 78 -44 78 -19 0 8 -50 31 -68 31 -7 0 -12 -6 -10
-12z"/>
<path d="M1458 3481 c-6 -222 6 -589 27 -831 38 -452 46 -537 51 -561 5 -25 0
-28 -88 -62 -62 -23 -100 -44 -113 -62 -15 -20 -17 -28 -7 -34 20 -12 239 -22
321 -15 l71 7 0 72 c0 39 3 75 7 79 10 10 12 68 13 471 1 209 5 377 10 385 6
8 10 11 10 7 0 -4 22 -137 50 -295 27 -158 57 -336 65 -395 9 -60 20 -119 25
-133 9 -23 6 -26 -65 -59 -57 -26 -75 -39 -75 -54 0 -36 36 -45 180 -46 l135
0 3 140 c3 211 -15 560 -39 740 -19 147 -21 188 -15 491 l6 332 -37 -9 c-21
-6 -103 -12 -183 -15 -118 -4 -164 -2 -246 14 l-102 19 -4 -186z"/>
<path d="M355 3543 c11 -28 63 -207 90 -313 50 -192 87 -482 98 -767 3 -81 1
-103 -9 -103 -8 0 -16 12 -20 28 -3 15 -14 61 -24 102 -11 50 -16 98 -13 145
8 118 -40 267 -113 354 -61 73 -252 180 -321 181 -27 0 -34 -5 -39 -25 -10
-38 14 -110 50 -150 18 -20 52 -42 81 -53 54 -20 52 -13 38 -105 -8 -54 3 -83
49 -133 40 -43 161 -125 204 -138 22 -7 45 -70 60 -163 6 -40 5 -42 -22 -46
-16 -2 25 -4 91 -4 66 -1 112 1 103 4 -24 6 -23 20 12 148 52 193 135 362 228
466 30 32 49 59 44 59 -15 0 -98 -94 -138 -156 -47 -74 -118 -225 -133 -284
-7 -25 -16 -56 -22 -70 -5 -14 -15 -54 -22 -89 -8 -36 -19 -67 -25 -69 -16 -5
-15 115 1 308 l13 145 48 49 c52 54 130 179 148 237 8 29 7 46 -5 82 -14 43
-14 47 9 96 28 58 39 132 26 176 -23 79 -127 5 -197 -139 -40 -83 -91 -300
-80 -340 5 -17 4 -18 -4 -6 -8 12 -12 9 -17 -17 -10 -49 -20 -40 -28 25 -11
90 -54 276 -98 417 -22 72 -42 138 -45 148 -3 9 -10 17 -15 17 -6 0 -7 -8 -3
-17z m207 -615 c-7 -7 -12 -8 -12 -2 0 14 12 26 19 19 2 -3 -1 -11 -7 -17z
m11 -75 c18 -21 19 -31 12 -143 -11 -186 -19 -194 -33 -29 -7 79 -15 164 -18
189 -4 38 -3 42 7 25 6 -11 21 -30 32 -42z m-150 -27 c4 -10 1 -13 -8 -9 -8 3
-12 9 -9 14 7 12 11 11 17 -5z"/>
<path d="M11587 2660 c-29 -68 -67 -210 -60 -222 2 -5 10 -8 17 -8 8 0 17 26
25 67 7 37 21 94 32 127 30 89 20 115 -14 36z"/>
<path d="M1672 1098 c3 -9 30 -14 76 -16 60 -2 72 0 72 13 0 12 -14 15 -76 15
-56 0 -75 -3 -72 -12z"/>
<path d="M10413 1098 c2 -7 16 -13 32 -13 16 0 30 6 33 13 2 8 -8 12 -33 12
-25 0 -35 -4 -32 -12z"/>
</g>
</svg>
